{
  "streams": [
    {
      "index": 0,
      "codec_name": "hevc",
      "codec_long_name": "H.265 / HEVC (High Efficiency Video Coding)",
      "profile": "Main 10",
      "codec_type": "video",
      "codec_time_base": "1001/24000",
      "codec_tag_string": "[0][0][0][0]",
      "codec_tag": "0x0000",
      "width": 1920,
      "height": 1080,
      "coded_width": 1920,
      "coded_height": 1080,
      "closed_captions": 0,
      "has_b_frames": 2,
      "sample_aspect_ratio": "1:1",
      "display_aspect_ratio": "16:9",
      "pix_fmt": "yuv420p10le",
      "level": 123,
      "color_range": "tv",
      "color_space": "bt709",
      "color_transfer": "bt709",
      "color_primaries": "bt709",
      "refs": 1,
      "r_frame_rate": "24000/1001",
      "avg_frame_rate": "24000/1001",
      "time_base": "1/1000",
      "start_pts": 0,
      "start_time": "0.000000",
      "disposition": {
        "default": 1,
        "dub": 0,
        "original": 0,
        "comment": 0,
        "lyrics": 0,
        "karaoke": 0,
        "forced": 0,
        "hearing_impaired": 0,
        "visual_impaired": 0,
        "clean_effects": 0,
        "attached_pic": 0,
        "timed_thumbnails": 0
      },
      "tags": {
        "BPS": "1885688",
        "DURATION": "00:23:40.961000000",
        "NUMBER_OF_FRAMES": "34069",
        "NUMBER_OF_BYTES": "334936187",
        "_STATISTICS_WRITING_APP": "mkvmerge v61.0.0 ('So') 64-bit",
        "_STATISTICS_WRITING_DATE_UTC": "2021-10-17 14:54:43",
        "_STATISTICS_TAGS": "BPS DURATION NUMBER_OF_FRAMES NUMBER_OF_BYTES"
      }
    },
    {
      "index": 1,
      "codec_name": "aac",
      "codec_long_name": "AAC (Advanced Audio Coding)",
      "profile": "LC",
      "codec_type": "audio",
      "codec_time_base": "1/48000",
      "codec_tag_string": "[0][0][0][0]",
      "codec_tag": "0x0000",
      "sample_fmt": "fltp",
      "sample_rate": "48000",
      "channels": 2,
      "channel_layout": "stereo",
      "bits_per_sample": 0,
      "r_frame_rate": "0/0",
      "avg_frame_rate": "0/0",
      "time_base": "1/1000",
      "start_pts": 0,
      "start_time": "0.000000",
      "disposition": {
        "default": 1,
        "dub": 0,
        "original": 0,
        "comment": 0,
        "lyrics": 0,
        "karaoke": 0,
        "forced": 0,
        "hearing_impaired": 0,
        "visual_impaired": 0,
        "clean_effects": 0,
        "attached_pic": 0,
        "timed_thumbnails": 0
      },
      "tags": {
        "language": "eng",
        "BPS": "253375",
        "DURATION": "00:23:40.010000000",
        "NUMBER_OF_FRAMES": "66563",
        "NUMBER_OF_BYTES": "44974400",
        "_STATISTICS_WRITING_APP": "mkvmerge v61.0.0 ('So') 64-bit",
        "_STATISTICS_WRITING_DATE_UTC": "2021-10-17 14:54:43",
        "_STATISTICS_TAGS": "BPS DURATION NUMBER_OF_FRAMES NUMBER_OF_BYTES"
      }
    },
    {
      "index": 2,
      "codec_name": "ac3",
      "codec_long_name": "ATSC A/52A (AC-3)",
      "codec_type": "audio",
      "codec_time_base": "1/48000",
      "codec_tag_string": "[0][0][0][0]",
      "codec_tag": "0x0000",
      "sample_fmt": "fltp",
      "sample_rate": "48000",
      "channels": 2,
      "channel_layout": "stereo",
      "bits_per_sample": 0,
      "dmix_mode": "-1",
      "ltrt_cmixlev": "-1.000000",
      "ltrt_surmixlev": "-1.000000",
      "loro_cmixlev": "-1.000000",
      "loro_surmixlev": "-1.000000",
      "r_frame_rate": "0/0",
      "avg_frame_rate": "0/0",
      "time_base": "1/1000",
      "start_pts": 0,
      "start_time": "0.000000",
      "bit_rate": "224000",
      "disposition": {
        "default": 0,
        "dub": 0,
        "original": 0,
        "comment": 0,
        "lyrics": 0,
        "karaoke": 0,
        "forced": 0,
        "hearing_impaired": 0,
        "visual_impaired": 0,
        "clean_effects": 0,
        "attached_pic": 0,
        "timed_thumbnails": 0
      },
      "tags": {
        "language": "jpn",
        "BPS": "224000",
        "DURATION": "00:23:40.992000000",
        "NUMBER_OF_FRAMES": "44406",
        "NUMBER_OF_BYTES": "39787776",
        "_STATISTICS_WRITING_APP": "mkvmerge v61.0.0 ('So') 64-bit",
        "_STATISTICS_WRITING_DATE_UTC": "2021-10-17 14:54:43",
        "_STATISTICS_TAGS": "BPS DURATION NUMBER_OF_FRAMES NUMBER_OF_BYTES"
      }
    },
    {
      "index": 3,
      "codec_name": "ass",
      "codec_long_name": "ASS (Advanced SSA) subtitle",
      "codec_type": "subtitle",
      "codec_time_base": "0/1",
      "codec_tag_string": "[0][0][0][0]",
      "codec_tag": "0x0000",
      "r_frame_rate": "0/0",
      "avg_frame_rate": "0/0",
      "time_base": "1/1000",
      "start_pts": 0,
      "start_time": "0.000000",
      "duration_ts": 1420992,
      "duration": "1420.992000",
      "disposition": {
        "default": 1,
        "dub": 0,
        "original": 0,
        "comment": 0,
        "lyrics": 0,
        "karaoke": 0,
        "forced": 0,
        "hearing_impaired": 0,
        "visual_impaired": 0,
        "clean_effects": 0,
        "attached_pic": 0,
        "timed_thumbnails": 0
      },
      "tags": {
        "language": "eng",
        "title": "Signs",
        "BPS": "5",
        "DURATION": "00:16:27.610000000",
        "NUMBER_OF_FRAMES": "9",
        "NUMBER_OF_BYTES": "642",
        "_STATISTICS_WRITING_APP": "mkvmerge v61.0.0 ('So') 64-bit",
        "_STATISTICS_WRITING_DATE_UTC": "2021-10-17 14:54:43",
        "_STATISTICS_TAGS": "BPS DURATION NUMBER_OF_FRAMES NUMBER_OF_BYTES"
      }
    },
    {
      "index": 4,
      "codec_name": "ass",
      "codec_long_name": "ASS (Advanced SSA) subtitle",
      "codec_type": "subtitle",
      "codec_time_base": "0/1",
      "codec_tag_string": "[0][0][0][0]",
      "codec_tag": "0x0000",
      "r_frame_rate": "0/0",
      "avg_frame_rate": "0/0",
      "time_base": "1/1000",
      "start_pts": 0,
      "start_time": "0.000000",
      "duration_ts": 1420992,
      "duration": "1420.992000",
      "disposition": {
        "default": 0,
        "dub": 0,
        "original": 0,
        "comment": 0,
        "lyrics": 0,
        "karaoke": 0,
        "forced": 0,
        "hearing_impaired": 0,
        "visual_impaired": 0,
        "clean_effects": 0,
        "attached_pic": 0,
        "timed_thumbnails": 0
      },
      "tags": {
        "language": "eng",
        "title": "Dialogue",
        "BPS": "116",
        "DURATION": "00:21:46.420000000",
        "NUMBER_OF_FRAMES": "384",
        "NUMBER_OF_BYTES": "19097",
        "_STATISTICS_WRITING_APP": "mkvmerge v61.0.0 ('So') 64-bit",
        "_STATISTICS_WRITING_DATE_UTC": "2021-10-17 14:54:43",
        "_STATISTICS_TAGS": "BPS DURATION NUMBER_OF_FRAMES NUMBER_OF_BYTES"
      }
    },
    {
      "index": 5,
      "codec_name": "ass",
      "codec_long_name": "ASS (Advanced SSA) subtitle",
      "codec_type": "subtitle",
      "codec_time_base": "0/1",
      "codec_tag_string": "[0][0][0][0]",
      "codec_tag": "0x0000",
      "r_frame_rate": "0/0",
      "avg_frame_rate": "0/0",
      "time_base": "1/1000",
      "start_pts": 0,
      "start_time": "0.000000",
      "duration_ts": 1420992,
      "duration": "1420.992000",
      "disposition": {
        "default": 0,
        "dub": 0,
        "original": 0,
        "comment": 0,
        "lyrics": 0,
        "karaoke": 0,
        "forced": 0,
        "hearing_impaired": 0,
        "visual_impaired": 0,
        "clean_effects": 0,
        "attached_pic": 0,
        "timed_thumbnails": 0
      },
      "tags": {
        "language": "eng",
        "title": "CC",
        "BPS": "145",
        "DURATION": "00:21:46.120000000",
        "NUMBER_OF_FRAMES": "458",
        "NUMBER_OF_BYTES": "23727",
        "_STATISTICS_WRITING_APP": "mkvmerge v61.0.0 ('So') 64-bit",
        "_STATISTICS_WRITING_DATE_UTC": "2021-10-17 14:54:43",
        "_STATISTICS_TAGS": "BPS DURATION NUMBER_OF_FRAMES NUMBER_OF_BYTES"
      }
    },
    {
      "index": 6,
      "codec_type": "attachment",
      "codec_tag_string": "[0][0][0][0]",
      "codec_tag": "0x0000",
      "r_frame_rate": "0/0",
      "avg_frame_rate": "0/0",
      "time_base": "1/90000",
      "start_pts": 0,
      "start_time": "0.000000",
      "duration_ts": 127889280,
      "duration": "1420.992000",
      "disposition": {
        "default": 0,
        "dub": 0,
        "original": 0,
        "comment": 0,
        "lyrics": 0,
        "karaoke": 0,
        "forced": 0,
        "hearing_impaired": 0,
        "visual_impaired": 0,
        "clean_effects": 0,
        "attached_pic": 0,
        "timed_thumbnails": 0
      },
      "tags": {
        "filename": "Roboto-Medium.ttf",
        "mimetype": "font/ttf"
      }
    },
    {
      "index": 7,
      "codec_type": "attachment",
      "codec_tag_string": "[0][0][0][0]",
      "codec_tag": "0x0000",
      "r_frame_rate": "0/0",
      "avg_frame_rate": "0/0",
      "time_base": "1/90000",
      "start_pts": 0,
      "start_time": "0.000000",
      "duration_ts": 127889280,
      "duration": "1420.992000",
      "disposition": {
        "default": 0,
        "dub": 0,
        "original": 0,
        "comment": 0,
        "lyrics": 0,
        "karaoke": 0,
        "forced": 0,
        "hearing_impaired": 0,
        "visual_impaired": 0,
        "clean_effects": 0,
        "attached_pic": 0,
        "timed_thumbnails": 0
      },
      "tags": {
        "filename": "Roboto-MediumItalic.ttf",
        "mimetype": "font/ttf"
      }
    },
    {
      "index": 8,
      "codec_type": "attachment",
      "codec_tag_string": "[0][0][0][0]",
      "codec_tag": "0x0000",
      "r_frame_rate": "0/0",
      "avg_frame_rate": "0/0",
      "time_base": "1/90000",
      "start_pts": 0,
      "start_time": "0.000000",
      "duration_ts": 127889280,
      "duration": "1420.992000",
      "disposition": {
        "default": 0,
        "dub": 0,
        "original": 0,
        "comment": 0,
        "lyrics": 0,
        "karaoke": 0,
        "forced": 0,
        "hearing_impaired": 0,
        "visual_impaired": 0,
        "clean_effects": 0,
        "attached_pic": 0,
        "timed_thumbnails": 0
      },
      "tags": {
        "filename": "verdanab.ttf",
        "mimetype": "font/ttf"
      }
    },
    {
      "index": 9,
      "codec_type": "attachment",
      "codec_tag_string": "[0][0][0][0]",
      "codec_tag": "0x0000",
      "r_frame_rate": "0/0",
      "avg_frame_rate": "0/0",
      "time_base": "1/90000",
      "start_pts": 0,
      "start_time": "0.000000",
      "duration_ts": 127889280,
      "duration": "1420.992000",
      "disposition": {
        "default": 0,
        "dub": 0,
        "original": 0,
        "comment": 0,
        "lyrics": 0,
        "karaoke": 0,
        "forced": 0,
        "hearing_impaired": 0,
        "visual_impaired": 0,
        "clean_effects": 0,
        "attached_pic": 0,
        "timed_thumbnails": 0
      },
      "tags": {
        "filename": "YuGothB.ttc",
        "mimetype": "font/collection"
      }
    },
    {
      "index": 10,
      "codec_type": "attachment",
      "codec_tag_string": "[0][0][0][0]",
      "codec_tag": "0x0000",
      "r_frame_rate": "0/0",
      "avg_frame_rate": "0/0",
      "time_base": "1/90000",
      "start_pts": 0,
      "start_time": "0.000000",
      "duration_ts": 127889280,
      "duration": "1420.992000",
      "disposition": {
        "default": 0,
        "dub": 0,
        "original": 0,
        "comment": 0,
        "lyrics": 0,
        "karaoke": 0,
        "forced": 0,
        "hearing_impaired": 0,
        "visual_impaired": 0,
        "clean_effects": 0,
        "attached_pic": 0,
        "timed_thumbnails": 0
      },
      "tags": {
        "filename": "trebucbd.ttf",
        "mimetype": "font/ttf"
      }
    },
    {
      "index": 11,
      "codec_type": "attachment",
      "codec_tag_string": "[0][0][0][0]",
      "codec_tag": "0x0000",
      "r_frame_rate": "0/0",
      "avg_frame_rate": "0/0",
      "time_base": "1/90000",
      "start_pts": 0,
      "start_time": "0.000000",
      "duration_ts": 127889280,
      "duration": "1420.992000",
      "disposition": {
        "default": 0,
        "dub": 0,
        "original": 0,
        "comment": 0,
        "lyrics": 0,
        "karaoke": 0,
        "forced": 0,
        "hearing_impaired": 0,
        "visual_impaired": 0,
        "clean_effects": 0,
        "attached_pic": 0,
        "timed_thumbnails": 0
      },
      "tags": {
        "filename": "OpenSans-Semibold.ttf",
        "mimetype": "font/ttf"
      }
    },
    {
      "index": 12,
      "codec_name": "mjpeg",
      "codec_long_name": "Motion JPEG",
      "profile": "Baseline",
      "codec_type": "video",
      "codec_time_base": "0/1",
      "codec_tag_string": "[0][0][0][0]",
      "codec_tag": "0x0000",
      "width": 640,
      "height": 360,
      "coded_width": 640,
      "coded_height": 360,
      "closed_captions": 0,
      "has_b_frames": 0,
      "sample_aspect_ratio": "1:1",
      "display_aspect_ratio": "16:9",
      "pix_fmt": "yuvj420p",
      "level": -99,
      "color_range": "pc",
      "color_space": "bt470bg",
      "chroma_location": "center",
      "refs": 1,
      "r_frame_rate": "90000/1",
      "avg_frame_rate": "0/0",
      "time_base": "1/90000",
      "start_pts": 0,
      "start_time": "0.000000",
      "duration_ts": 127889280,
      "duration": "1420.992000",
      "bits_per_raw_sample": "8",
      "disposition": {
        "default": 0,
        "dub": 0,
        "original": 0,
        "comment": 0,
        "lyrics": 0,
        "karaoke": 0,
        "forced": 0,
        "hearing_impaired": 0,
        "visual_impaired": 0,
        "clean_effects": 0,
        "attached_pic": 1,
        "timed_thumbnails": 0
      },
      "tags": {
        "filename": "cover.jpg",
        "mimetype": "image/jpeg"
      }
    }
  ],
  "format": {
    "filename": "E01.mkv",
    "nb_streams": 13,
    "nb_programs": 0,
    "format_name": "matroska,webm",
    "format_long_name": "Matroska / WebM",
    "start_time": "0.000000",
    "duration": "1420.992000",
    "size": "436260285",
    "bit_rate": "2456088",
    "probe_score": 100,
    "tags": {
      "encoder": "libebml v1.4.2 + libmatroska v1.6.4"
    }
  }
}
